<?xml version="1.0" encoding="UTF-8"?>
<svg width="105px" height="13px" viewBox="0 0 105 13" version="1.1" xmlns="http://www.w3.org/2000/svg" xmlns:xlink="http://www.w3.org/1999/xlink">
    <!-- Generator: Sketch 46.2 (44496) - http://www.bohemiancoding.com/sketch -->
    <title>brand-telefonica</title>
    <desc>Created with Sketch.</desc>
    <defs></defs>
    <g id="Iconos" stroke="none" stroke-width="1" fill="none" fill-rule="evenodd">
        <g id="Logos" transform="translate(-116.000000, -20.000000)" fill="#50535A">
            <path d="M170.41175,27.4368641 L172.861412,27.4368641 L172.717302,28.3292878 L169.014071,28.3292878 L169.964944,22.9171219 L173.625175,22.9171219 L173.372929,23.8095456 L171.038427,23.8095456 L170.815344,25.1193693 L172.673877,25.1193693 L172.50848,26.0477281 L170.649521,26.0477281 L170.41175,27.4368641 Z M164.899797,27.4296346 L165.310628,27.4296346 C165.980518,27.4296346 166.427323,27.2642056 166.773018,26.7602637 C167.061239,26.3500932 167.270273,25.7238869 167.270273,25.054516 C167.270273,24.637116 167.191087,24.3494226 167.010789,24.1408289 C166.823467,23.9245805 166.520985,23.8167752 166.030967,23.8167752 L165.526474,23.8167752 L164.899797,27.4296346 Z M166.059917,22.9171219 C166.866679,22.9171219 167.622992,23.054058 168.077035,23.5288691 C168.430393,23.9031045 168.552578,24.4140633 168.552578,25.03304 C168.552578,25.990317 168.257333,26.9114462 167.659392,27.5231934 C167.061239,28.1277111 166.275976,28.3292878 165.18078,28.3292878 L163.502331,28.3292878 L164.453204,22.9171219 L166.059917,22.9171219 Z M158.192175,26.0768589 L159.366557,26.0768589 L159.099836,24.1910105 L159.085361,24.1910105 L158.192175,26.0768589 Z M159.51088,26.9688573 L157.75282,26.9688573 L157.09698,28.3292878 L155.857674,28.3292878 L158.624293,22.9171219 L159.98621,22.9171219 L160.99477,28.3292878 L159.72694,28.3292878 L159.51088,26.9688573 Z M155.7787,23.9537113 C155.447268,23.8599398 155.065386,23.766381 154.661792,23.766381 C154.18625,23.766381 153.724969,23.8958749 153.372037,24.4499984 C153.076579,24.9107756 152.88947,25.6016226 152.88947,26.2276162 C152.88947,26.55167 152.939706,26.8897576 153.119791,27.1200399 C153.328825,27.3936995 153.660258,27.4798162 154.128563,27.4798162 C154.459995,27.4798162 154.885089,27.4368641 155.216521,27.3720109 L155.187784,28.2716641 C154.841664,28.3722399 154.315885,28.4373058 153.861842,28.4373058 C152.384977,28.4373058 151.606952,27.7607053 151.606952,26.2924695 C151.606952,25.3857993 151.90241,24.2915862 152.558037,23.5937224 C153.112766,23.0034512 153.818843,22.809104 154.560894,22.809104 C155.137335,22.809104 155.62714,22.9243515 156.087995,23.075534 L155.7787,23.9537113 Z M148.090831,25.471916 L148.566374,25.471916 C148.98423,25.471916 149.29395,25.4072753 149.524697,25.1912395 C149.719043,25.0043345 149.819942,24.7379044 149.819942,24.4718996 C149.819942,24.2628807 149.755018,24.097239 149.661569,24.0038928 C149.553221,23.8958749 149.358661,23.8095456 148.998705,23.8095456 L148.379052,23.8095456 L148.090831,25.471916 Z M150.749315,25.4648991 C150.569443,25.71687 150.223323,25.990317 149.776943,26.1629756 L150.619892,28.3292878 L149.29395,28.3292878 L148.660035,26.3643397 L147.932459,26.3643397 L147.593789,28.3292878 L146.354483,28.3292878 L147.305568,22.9171219 L149.149839,22.9171219 C149.827179,22.9171219 150.288034,23.0610749 150.583705,23.3130459 C150.886188,23.5720338 151.044986,23.9824168 151.044986,24.4499984 C151.044986,24.8457097 150.929399,25.2129281 150.749315,25.4648991 L150.749315,25.4648991 Z M142.773863,26.0768589 L143.947819,26.0768589 L143.681311,24.1910105 L143.666836,24.1910105 L142.773863,26.0768589 Z M144.092143,26.9688573 L142.334082,26.9688573 L141.678668,28.3292878 L140.439362,28.3292878 L143.205768,22.9171219 L144.567685,22.9171219 L145.576245,28.3292878 L144.308202,28.3292878 L144.092143,26.9688573 Z M136.188214,22.9171219 L137.348121,25.9039877 L139.624936,22.9171219 L140.640733,22.9171219 L139.68986,28.3292878 L138.55869,28.3292878 L139.106182,25.1697635 L137.643579,27.0913344 L136.692494,27.0913344 L135.899994,25.0691877 L135.323765,28.3292878 L134.286256,28.3292878 L135.237129,22.9171219 L136.188214,22.9171219 Z M128.9761,26.0768589 L130.150482,26.0768589 L129.883761,24.1910105 L129.869499,24.1910105 L128.9761,26.0768589 Z M130.294592,26.9688573 L128.536532,26.9688573 L127.880904,28.3292878 L126.641811,28.3292878 L129.408431,22.9171219 L130.769922,22.9171219 L131.778907,28.3292878 L130.510651,28.3292878 L130.294592,26.9688573 Z M122.282741,22.9171219 L123.17614,22.9171219 L125.135784,26.4578985 L125.762888,22.9171219 L126.85042,22.9171219 L125.892097,28.3292878 L124.919725,28.3292878 L123.01053,24.9611698 L122.419614,28.3292878 L121.331655,28.3292878 L122.282741,22.9171219 Z M119.919289,22.9171219 L121.02896,22.9171219 L120.387807,26.5444404 C120.265197,27.2352874 119.998475,27.6599169 119.660018,27.9405934 C119.220663,28.3075992 118.672959,28.4373058 118.053519,28.4373058 C117.404916,28.4373058 116.907661,28.2933527 116.533229,27.9765285 C116.14411,27.6454578 116,27.2208283 116,26.6524584 C116,26.4002748 116.02895,26.1412869 116.093661,25.7817233 L116.605391,22.9171219 L117.815747,22.9171219 L117.253781,26.0983349 C117.203332,26.4002748 117.196094,26.55167 117.196094,26.6379993 C117.196094,26.8251169 117.231856,27.0409402 117.361704,27.2065818 C117.513265,27.400929 117.765085,27.4944879 118.103968,27.4944879 C118.536086,27.4944879 118.802594,27.3433053 118.961179,27.1632046 C119.134027,26.9688573 119.2494,26.6883935 119.343061,26.1774347 L119.919289,22.9171219 Z M178.22819,23.9741241 L178.304396,23.907995 C178.198389,23.7363996 178.159222,23.426167 178.163692,23.2430894 C178.203924,21.7108509 179.823408,20.8405411 182.355024,20.8405411 L183.755895,20.8405411 C182.941257,21.3164153 182.258596,21.9438974 181.73452,23.1265661 C181.510159,23.6358239 180.437101,26.3747587 179.999874,27.6050574 C179.45664,29.0690405 179.107114,29.7339462 178.676912,29.9791128 L178.750776,30.1103078 C179.963048,30.1855802 180.687432,29.5663908 181.153182,28.4205077 C181.597647,27.3407537 182.184731,25.618208 182.471887,24.8531519 C183.404879,22.3872387 183.813582,21.3529883 184.557336,20.8405411 C185.593142,20.8358631 186.591909,20.8358631 186.591909,20.8358631 C187.705199,20.8048186 188.180529,20.5292453 188.528777,20.0975989 L188.450443,20 C188.172227,20.1505447 187.567049,20.178825 187.057022,20.1809513 L182.02572,20.1809513 C179.197157,20.1809513 177.462086,21.109948 177.181102,22.4924924 C177.041462,23.1603749 177.413765,23.8843927 178.22819,23.9741241 L178.22819,23.9741241 Z M197.253943,32.3597599 C185.47415,32.3597599 173.507035,32.5028624 173.507035,32.6767968 C173.507035,32.8488174 185.47415,33 197.253943,33 C209.033736,33 221,32.8488174 221,32.6767968 C221,32.5028624 209.033736,32.3597599 197.253943,32.3597599 L197.253943,32.3597599 Z M208.903462,22.0102391 C209.225529,22.0066244 209.550788,21.7053224 209.621246,21.3504367 C209.699581,20.9834309 209.487354,20.7002028 209.160817,20.7082829 C208.841092,20.7101966 208.519452,21.0044817 208.442182,21.3712748 C208.373,21.7295626 208.57352,22.0157676 208.903462,22.0102391 L208.903462,22.0102391 Z M192.677749,23.3024142 C192.853151,23.3024142 192.924887,23.4234028 192.924887,23.5760738 C192.917649,24.3007295 192.031062,25.2271746 190.878393,25.9022866 C191.168955,24.781707 191.974227,23.2926331 192.677749,23.3024142 L192.677749,23.3024142 Z M189.316595,27.0713468 C189.308293,27.8208806 189.705075,28.446449 190.716827,28.4113645 C191.802231,28.3809578 192.791845,27.7536884 193.646715,26.8563741 C193.430869,27.4336746 193.247592,27.928048 193.135837,28.1957539 C192.818454,28.9850502 192.586855,29.6267788 192.097476,29.9982499 L192.15048,30.0941477 C193.583068,30.1764369 194.118426,29.1730184 194.706788,27.5351009 C195.296001,25.8942065 195.794534,24.467647 196.183014,23.4786876 C196.809266,23.4786876 197.697769,23.4999509 198.193534,23.3881056 C196.897392,23.9632798 195.794534,26.0296542 195.923743,27.3922111 C195.982707,27.9965161 196.342025,28.4113645 197.110471,28.4113645 C198.599469,28.4113645 199.851121,26.6518205 200.329857,25.4904151 C200.60339,24.8252969 200.785603,24.258628 200.813276,23.6879191 C201.168549,23.6256175 201.507858,23.5643789 201.677086,23.5384376 C202.002558,23.4948477 201.939124,23.8548366 201.836523,24.1263699 C201.228578,25.8244627 200.174039,28.289738 200.169782,28.3277994 L201.332456,28.3277994 C201.836523,27.2797278 202.14901,26.6088685 202.549411,25.8978213 C203.033469,25.0583434 204.11568,23.678138 204.545669,23.6743106 C204.698081,23.6743106 204.738526,23.7714842 204.699145,23.9192646 C204.624642,24.4878472 203.232285,26.6639406 203.255275,27.7381661 C203.268898,28.442409 203.64035,28.866188 204.284908,29.0280022 L204.420291,28.9518794 C204.339189,28.7972946 204.327907,28.6067748 204.327907,28.3809578 C204.315135,27.6645949 204.900304,26.409418 205.124877,25.9224868 C205.483557,25.1574307 206.123858,24.0404658 206.0832,23.426167 C206.061275,23.1265661 205.837766,22.8611993 205.321991,22.8565213 C204.375163,22.852056 203.431741,23.7714842 202.639028,25.0043345 L202.61838,24.9994439 C202.93555,24.2832935 203.183539,23.6173247 203.17545,23.2926331 C203.168426,22.9951585 203.000262,22.8788479 202.644988,22.8788479 C202.396786,22.8871406 202.054285,22.9828257 201.719872,23.0712814 C201.25029,23.1924826 200.758995,23.3196375 200.218103,23.4336092 C199.884754,23.4786876 199.769381,23.5384376 199.779386,23.6587883 C199.847503,25.5420851 198.563708,27.7581537 197.708199,27.7655959 C197.340154,27.7655959 197.25671,27.4966142 197.25671,27.1270568 C197.253943,25.8244627 198.325511,23.6358239 199.374727,23.2881678 C199.463492,23.2611633 199.553535,23.2430894 199.613563,23.2235271 L199.747243,22.8716183 C199.524798,22.918823 198.996252,22.9262652 198.71761,22.9337074 L196.418444,22.9337074 C197.026176,21.4888613 197.877428,20.5496582 199.126526,20.4952239 C199.901784,20.4694952 200.424157,20.761654 200.469284,21.2054205 C200.501853,21.5826327 200.396484,21.8898884 200.094427,22.2016095 L200.179787,22.2873009 C200.863938,21.9651608 201.335649,21.4167784 201.340332,21.0414799 C201.349698,20.4622657 200.649369,20.1054663 199.53161,20.1167359 C198.112858,20.1265171 196.363099,20.4458929 195.142738,22.9762341 C194.777034,23.0302431 194.444537,23.1693055 194.169089,23.4648664 L194.218686,23.5760738 C194.418142,23.5044162 194.656126,23.4948477 194.919016,23.4948477 C194.749361,23.907995 194.411543,24.8106251 194.070957,25.7353692 C193.04324,27.0923975 192.008711,27.7381661 191.252185,27.7381661 C190.838161,27.7521999 190.670848,27.5223429 190.668294,27.1270568 C190.662759,26.8765743 190.723639,26.5308319 190.775578,26.3471164 C191.582979,25.940986 192.397618,25.4859498 193.133495,24.731738 C193.536238,24.2932873 193.816157,23.8556871 193.829142,23.4019268 C193.833612,22.9762341 193.571999,22.7567961 193.031958,22.7499918 C192.262448,22.7393601 191.336268,23.267117 190.730664,23.907995 C189.940718,24.7695868 189.328089,25.987978 189.316595,27.0713468 L189.316595,27.0713468 Z M215.584475,23.4806013 C215.923571,23.3213386 216.206257,23.3128333 216.444028,23.3602506 C216.35505,23.5473682 215.94656,24.3696228 215.628539,25.1089502 C215.125323,26.2684419 214.371139,27.4387778 213.67081,27.6061206 C213.429845,27.6750139 213.287864,27.5718866 213.29127,27.3316105 C213.312343,26.3050149 214.442875,24.0151624 215.584475,23.4806013 L215.584475,23.4806013 Z M205.648741,27.6207923 C205.648741,28.1340901 205.976129,28.4509143 206.598975,28.4326278 C207.242681,28.4205077 207.898735,28.0396807 208.442182,27.515326 C208.545209,28.0681736 208.944971,28.4706893 209.759609,28.442409 C210.608519,28.4113645 211.419539,27.8802054 211.982569,27.2644182 L211.982569,27.4417547 C211.982569,28.0114004 212.277602,28.4373058 212.927907,28.4373058 C213.629301,28.4373058 214.436489,27.91125 215.073597,27.003304 L215.095309,27.0152115 C215.036771,27.229121 214.967164,27.5937878 214.957159,27.8372534 C214.948006,28.5202329 215.353941,28.9150937 215.918888,29.0280022 L216.056612,28.9729301 C215.848855,28.4768556 216.137288,27.2427296 216.256919,26.8323465 C216.678394,25.4802087 217.346793,23.9343616 217.733571,23.1329451 C217.557105,22.9828257 217.144145,22.879911 216.704789,22.8597108 C215.247721,22.8074029 213.779159,23.4072426 212.709081,25.2990448 C212.525591,25.6299028 212.323581,26.0090288 212.176065,26.409418 C212.024717,26.6116327 211.865706,26.7913082 211.796524,26.8563741 C211.410385,27.229121 210.859701,27.706909 210.302843,27.7130753 C209.983332,27.7194543 209.808994,27.4966142 209.816019,27.1004776 C209.822831,25.5878014 211.159842,23.2881678 212.066439,23.2826393 C212.316769,23.2826393 212.422563,23.3908698 212.422563,23.6032909 C212.422563,23.8548366 212.251845,24.2022801 212.005133,24.4244823 L212.112418,24.5199549 C212.721853,24.2871209 213.287864,23.8646178 213.29127,23.4125585 C213.29127,22.8979849 212.697161,22.8025123 212.170104,22.8074029 C211.462112,22.8165462 210.580847,23.1625012 209.871364,23.9354248 C208.985416,24.9026955 208.526689,26.0641009 208.435157,26.8925218 C208.030286,27.3656318 207.577094,27.6877719 207.276101,27.6911741 C207.104319,27.6975531 206.981921,27.6061206 206.981921,27.4268704 C206.981921,27.2690961 207.070473,26.9473813 207.228845,26.5308319 C207.621157,25.5546305 208.187168,24.3390036 208.885156,22.8941575 C208.885156,22.8941575 207.822741,23.0712814 207.671819,23.1169976 C207.510254,23.1569728 207.386792,23.2611633 207.316333,23.4072426 C206.861651,24.3696228 206.321823,25.4802087 205.985495,26.3090549 C205.779015,26.8308581 205.648741,27.3243809 205.648741,27.6207923 L205.648741,27.6207923 Z M186.382024,23.3024142 C186.557638,23.3024142 186.618518,23.4234028 186.618518,23.5760738 C186.618518,24.3007295 185.722352,25.2271746 184.58288,25.9022866 C184.867695,24.781707 185.67616,23.2926331 186.382024,23.3024142 L186.382024,23.3024142 Z M187.436562,25.7778959 C186.727079,26.807681 185.734911,27.7381661 184.882382,27.7381661 C184.51902,27.7521999 184.360009,27.5436063 184.367247,27.1270568 C184.367247,26.8765743 184.425998,26.525516 184.475595,26.3471164 C185.281719,25.940986 186.102105,25.4859498 186.832235,24.731738 C187.240299,24.2932873 187.512768,23.8556871 187.525327,23.4019268 C187.532139,22.9762341 187.263289,22.7567961 186.732827,22.7499918 C185.95991,22.7393601 185.033943,23.267117 184.431532,23.907995 C183.641586,24.7695868 183.032364,25.987978 183.016399,27.0713468 C183.007246,27.8372534 183.371672,28.446449 184.360009,28.4113645 C185.41774,28.3809578 186.458442,27.5655075 186.994865,26.9767248 C186.929941,27.2297589 186.887155,27.4670581 186.887155,27.6620432 C186.887155,28.3437469 187.225186,28.8262128 187.895714,29.0314044 L188.029181,28.9693153 C187.969153,28.7849619 187.953401,28.5921031 187.969153,28.3775557 C188.015345,27.7130753 188.27866,26.9675815 188.66714,25.9847885 C189.40536,24.1263699 190.479269,21.9987569 190.952044,20.7461317 L189.825132,20.9594033 C189.649943,20.9961889 189.538188,21.1312114 189.480289,21.2573032 C188.93599,22.4116916 188.377643,23.6430534 187.679655,25.2467369 C187.600043,25.4183323 187.525327,25.5988583 187.436562,25.7778959 L187.436562,25.7778959 Z" id="brand-telefonica"></path>
        </g>
    </g>
</svg>